<svg xmlns="http://www.w3.org/2000/svg" xmlns:xlink="http://www.w3.org/1999/xlink">
<symbol id="icon-home" viewBox="0 0 24 24" stroke-width="2" stroke="currentColor" fill="none" stroke-linecap="round" stroke-linejoin="round">
   <path stroke="none" d="M0 0h24v24H0z" fill="none"></path>
   <path d="M5 12l-2 0l9 -9l9 9l-2 0"></path>
   <path d="M5 12v7a2 2 0 0 0 2 2h10a2 2 0 0 0 2 -2v-7"></path>
   <path d="M9 21v-6a2 2 0 0 1 2 -2h2a2 2 0 0 1 2 2v6"></path>
</symbol>
<symbol id="icon-chevron-right" viewBox="0 0 24 24" stroke-width="2" stroke="currentColor" fill="none" stroke-linecap="round" stroke-linejoin="round">
<path stroke="none" d="M0 0h24v24H0z" fill="none"></path>
<polyline points="9 6 15 12 9 18"></polyline>
</symbol>
<symbol id="icon-chevron-left" viewBox="0 0 24 24" stroke-width="2" stroke="currentColor" fill="none" stroke-linecap="round" stroke-linejoin="round">
<path stroke="none" d="M0 0h24v24H0z" fill="none"></path>
<polyline points="15 6 9 12 15 18"></polyline>
</symbol>
<symbol id="icon-book" viewBox="0 0 24 24" stroke-width="2" stroke="currentColor" fill="none" stroke-linecap="round" stroke-linejoin="round">
<path stroke="none" d="M0 0h24v24H0z" fill="none"></path>
<path d="M3 19a9 9 0 0 1 9 0a9 9 0 0 1 9 0"></path>
<path d="M3 6a9 9 0 0 1 9 0a9 9 0 0 1 9 0"></path>
<path d="M3 6l0 13"></path>
<path d="M12 6l0 13"></path>
<path d="M21 6l0 13"></path>
</symbol>
</svg>