<svg xmlns="http://www.w3.org/2000/svg" xmlns:xlink="http://www.w3.org/1999/xlink">
<symbol id="icon-home" viewBox="0 0 24 24" stroke-width="2" stroke="currentColor" fill="none" stroke-linecap="round" stroke-linejoin="round">
   <path stroke="none" d="M0 0h24v24H0z" fill="none"></path>
   <path d="M5 12l-2 0l9 -9l9 9l-2 0"></path>
   <path d="M5 12v7a2 2 0 0 0 2 2h10a2 2 0 0 0 2 -2v-7"></path>
   <path d="M9 21v-6a2 2 0 0 1 2 -2h2a2 2 0 0 1 2 2v6"></path>
</symbol>
<symbol id="icon-chevron-right" viewBox="0 0 24 24" stroke-width="2" stroke="currentColor" fill="none" stroke-linecap="round" stroke-linejoin="round">
<path stroke="none" d="M0 0h24v24H0z" fill="none"></path>
<polyline points="9 6 15 12 9 18"></polyline>
</symbol>
<symbol id="icon-chevron-left" viewBox="0 0 24 24" stroke-width="2" stroke="currentColor" fill="none" stroke-linecap="round" stroke-linejoin="round">
<path stroke="none" d="M0 0h24v24H0z" fill="none"></path>
<polyline points="15 6 9 12 15 18"></polyline>
</symbol>
<symbol id="icon-book" viewBox="0 0 24 24" stroke-width="2" stroke="currentColor" fill="none" stroke-linecap="round" stroke-linejoin="round">
<path stroke="none" d="M0 0h24v24H0z" fill="none"></path>
<path d="M3 19a9 9 0 0 1 9 0a9 9 0 0 1 9 0"></path>
<path d="M3 6a9 9 0 0 1 9 0a9 9 0 0 1 9 0"></path>
<path d="M3 6l0 13"></path>
<path d="M12 6l0 13"></path>
<path d="M21 6l0 13"></path>
</symbol>
<symbol id="icon-chevrons-left" viewBox="0 0 24 24" stroke-width="2" stroke="currentColor" fill="none" stroke-linecap="round" stroke-linejoin="round">
<path stroke="none" d="M0 0h24v24H0z" fill="none"></path>
<path d="M11 7l-5 5l5 5"></path>
<path d="M17 7l-5 5l5 5"></path>
</symbol>
<symbol id="icon-chevrons-right" viewBox="0 0 24 24" stroke-width="2" stroke="currentColor" fill="none" stroke-linecap="round" stroke-linejoin="round">
<path stroke="none" d="M0 0h24v24H0z" fill="none"></path>
<path d="M7 7l5 5l-5 5"></path>
<path d="M13 7l5 5l-5 5"></path>
</symbol>
<symbol id="icon-theme-auto" viewBox="0 0 24 24" stroke-width="2" stroke="currentColor" fill="none" stroke-linecap="round" stroke-linejoin="round">
<path stroke="none" d="M0 0h24v24H0z" fill="none"></path>
<path d="M12 12m-9 0a9 9 0 1 0 18 0a9 9 0 1 0 -18 0"></path>
<path d="M12 3v18"></path><path d="M12 14l7 -7"></path><path d="M12 19l8.5 -8.5"></path>
<path d="M12 9l4.5 -4.5"></path>
</symbol>
<symbol id="icon-theme-light" viewBox="0 0 24 24" stroke-width="2" stroke="currentColor" fill="none" stroke-linecap="round" stroke-linejoin="round">
<path stroke="none" d="M0 0h24v24H0z" fill="none"></path>
<path d="M14.828 14.828a4 4 0 1 0 -5.656 -5.656a4 4 0 0 0 5.656 5.656z"></path>
<path d="M6.343 17.657l-1.414 1.414"></path>
<path d="M6.343 6.343l-1.414 -1.414"></path>
<path d="M17.657 6.343l1.414 -1.414"></path>
<path d="M17.657 17.657l1.414 1.414"></path>
<path d="M4 12h-2"></path><path d="M12 4v-2"></path>
<path d="M20 12h2"></path><path d="M12 20v2"></path>
</symbol>
<symbol id="icon-theme-dark" viewBox="0 0 24 24" stroke-width="2" stroke="currentColor" fill="none" stroke-linecap="round" stroke-linejoin="round">
<path stroke="none" d="M0 0h24v24H0z" fill="none"></path>
<path d="M12 3c.132 0 .263 0 .393 0a7.5 7.5 0 0 0 7.92 12.446a9 9 0 1 1 -8.313 -12.454z"></path>
<path d="M17 4a2 2 0 0 0 2 2a2 2 0 0 0 -2 2a2 2 0 0 0 -2 -2a2 2 0 0 0 2 -2"></path>
<path d="M19 11h2m-1 -1v2"></path>
</symbol>
</svg>